<svg id="visual" viewBox="0 0 900 600" width="900" height="600" xmlns="http://www.w3.org/2000/svg" xmlns:xlink="http://www.w3.org/1999/xlink" version="1.1"><rect x="0" y="0" width="900" height="600" fill="#001220"></rect><defs><linearGradient id="grad1_0" x1="33.3%" y1="0%" x2="100%" y2="100%"><stop offset="20%" stop-color="#715df2" stop-opacity="1"></stop><stop offset="80%" stop-color="#715df2" stop-opacity="1"></stop></linearGradient></defs><defs><linearGradient id="grad1_1" x1="33.3%" y1="0%" x2="100%" y2="100%"><stop offset="20%" stop-color="#715df2" stop-opacity="1"></stop><stop offset="80%" stop-color="#004cae" stop-opacity="1"></stop></linearGradient></defs><defs><linearGradient id="grad1_2" x1="33.3%" y1="0%" x2="100%" y2="100%"><stop offset="20%" stop-color="#003165" stop-opacity="1"></stop><stop offset="80%" stop-color="#004cae" stop-opacity="1"></stop></linearGradient></defs><defs><linearGradient id="grad1_3" x1="33.3%" y1="0%" x2="100%" y2="100%"><stop offset="20%" stop-color="#003165" stop-opacity="1"></stop><stop offset="80%" stop-color="#001220" stop-opacity="1"></stop></linearGradient></defs><defs><linearGradient id="grad2_0" x1="0%" y1="0%" x2="66.7%" y2="100%"><stop offset="20%" stop-color="#715df2" stop-opacity="1"></stop><stop offset="80%" stop-color="#715df2" stop-opacity="1"></stop></linearGradient></defs><defs><linearGradient id="grad2_1" x1="0%" y1="0%" x2="66.7%" y2="100%"><stop offset="20%" stop-color="#004cae" stop-opacity="1"></stop><stop offset="80%" stop-color="#715df2" stop-opacity="1"></stop></linearGradient></defs><defs><linearGradient id="grad2_2" x1="0%" y1="0%" x2="66.7%" y2="100%"><stop offset="20%" stop-color="#004cae" stop-opacity="1"></stop><stop offset="80%" stop-color="#003165" stop-opacity="1"></stop></linearGradient></defs><defs><linearGradient id="grad2_3" x1="0%" y1="0%" x2="66.7%" y2="100%"><stop offset="20%" stop-color="#001220" stop-opacity="1"></stop><stop offset="80%" stop-color="#003165" stop-opacity="1"></stop></linearGradient></defs><g transform="translate(900, 0)"><path d="M0 405.6C-48 409 -95.9 412.4 -125.3 385.8C-154.7 359.2 -165.6 302.6 -201.6 277.5C-237.6 252.3 -298.9 258.6 -322 233.9C-345.1 209.3 -330 153.8 -337.6 109.7C-345.2 65.6 -375.4 32.8 -405.6 0L0 0Z" fill="#002241"></path><path d="M0 304.2C-36 306.7 -72 309.3 -94 289.3C-116.1 269.4 -124.2 227 -151.2 208.1C-178.2 189.3 -224.2 193.9 -241.5 175.5C-258.8 157 -247.5 115.4 -253.2 82.3C-258.9 49.2 -281.6 24.6 -304.2 0L0 0Z" fill="#003f8a"></path><path d="M0 202.8C-24 204.5 -48 206.2 -62.7 192.9C-77.4 179.6 -82.8 151.3 -100.8 138.7C-118.8 126.2 -149.4 129.3 -161 117C-172.5 104.7 -165 76.9 -168.8 54.9C-172.6 32.8 -187.7 16.4 -202.8 0L0 0Z" fill="#4056d1"></path><path d="M0 101.4C-12 102.2 -24 103.1 -31.3 96.4C-38.7 89.8 -41.4 75.7 -50.4 69.4C-59.4 63.1 -74.7 64.6 -80.5 58.5C-86.3 52.3 -82.5 38.5 -84.4 27.4C-86.3 16.4 -93.9 8.2 -101.4 0L0 0Z" fill="#715df2"></path></g><g transform="translate(0, 600)"><path d="M0 -405.6C34.8 -383.3 69.6 -360.9 115.3 -354.7C160.9 -348.6 217.4 -358.5 238.4 -328.2C259.5 -297.8 245.2 -227.1 256.5 -186.3C267.8 -145.5 304.7 -134.5 333.8 -108.5C363 -82.4 384.3 -41.2 405.6 0L0 0Z" fill="#002241"></path><path d="M0 -304.2C26.1 -287.5 52.2 -270.7 86.4 -266.1C120.7 -261.4 163 -268.9 178.8 -246.1C194.6 -223.4 183.9 -170.4 192.3 -139.7C200.8 -109.1 228.5 -100.9 250.4 -81.3C272.2 -61.8 288.2 -30.9 304.2 0L0 0Z" fill="#003f8a"></path><path d="M0 -202.8C17.4 -191.6 34.8 -180.5 57.6 -177.4C80.4 -174.3 108.7 -179.3 119.2 -164.1C129.7 -148.9 122.6 -113.6 128.2 -93.2C133.9 -72.8 152.3 -67.3 166.9 -54.2C181.5 -41.2 192.1 -20.6 202.8 0L0 0Z" fill="#4056d1"></path><path d="M0 -101.4C8.7 -95.8 17.4 -90.2 28.8 -88.7C40.2 -87.1 54.3 -89.6 59.6 -82C64.9 -74.5 61.3 -56.8 64.1 -46.6C66.9 -36.4 76.2 -33.6 83.5 -27.1C90.7 -20.6 96.1 -10.3 101.4 0L0 0Z" fill="#715df2"></path></g></svg>